<?xml version="1.0" standalone="no"?>
<!DOCTYPE svg PUBLIC "-//W3C//DTD SVG 20010904//EN"
 "http://www.w3.org/TR/2001/REC-SVG-20010904/DTD/svg10.dtd">
<svg version="1.0" xmlns="http://www.w3.org/2000/svg"
 width="750.000000pt" height="750.000000pt" viewBox="0 0 750.000000 750.000000"
 preserveAspectRatio="xMidYMid meet">
<metadata>
Created by potrace 1.14, written by Peter Selinger 2001-2017
</metadata>
<g transform="translate(0.000000,750.000000) scale(0.100000,-0.100000)"
fill="#000000" stroke="none">
<path d="M3519 7496 c-2 -2 -42 -6 -89 -10 -47 -4 -96 -8 -110 -11 -14 -2 -46
-7 -73 -9 -26 -3 -74 -10 -107 -16 -33 -6 -72 -13 -87 -16 -49 -9 -247 -54
-278 -63 -16 -5 -70 -21 -119 -35 -82 -25 -254 -85 -301 -106 -11 -5 -45 -19
-75 -31 -109 -44 -398 -196 -520 -274 -252 -160 -454 -323 -667 -540 -150
-152 -167 -170 -238 -260 -22 -27 -42 -52 -45 -55 -14 -13 -123 -164 -177
-245 -144 -216 -298 -513 -373 -720 -10 -27 -28 -75 -39 -105 -20 -50 -78
-234 -86 -270 -2 -8 -12 -53 -24 -100 -37 -156 -79 -405 -85 -505 -1 -20 5
-20 968 -20 l970 0 13 50 c7 28 15 60 17 72 6 28 53 167 73 213 126 294 287
513 518 708 240 202 562 354 845 398 19 3 46 7 60 10 121 21 356 23 492 5 528
-70 988 -354 1286 -793 109 -161 197 -357 251 -559 l28 -104 970 -2 970 -2 -3
27 c-7 69 -15 131 -18 148 -2 11 -7 42 -11 69 -5 28 -9 57 -10 65 -11 64 -20
111 -46 215 -16 66 -32 129 -34 141 -17 76 -129 384 -185 509 -29 65 -132 271
-156 312 -82 141 -140 233 -146 233 -5 0 -8 5 -8 10 0 14 -118 176 -218 300
-140 172 -426 449 -612 593 -400 310 -896 549 -1398 672 -51 12 -59 14 -64 16
-2 0 -14 2 -28 5 -14 2 -59 11 -100 19 -86 16 -112 20 -230 35 -47 6 -98 13
-115 16 -33 6 -581 15 -586 10z"/>
<path d="M3678 5004 c-2 -1 -31 -5 -66 -8 -560 -56 -1025 -516 -1099 -1086 -9
-69 -9 -259 0 -325 28 -207 118 -424 244 -587 182 -238 415 -390 713 -465 92
-23 126 -26 275 -27 144 -1 186 3 275 22 58 13 111 29 118 34 6 6 12 8 12 5 0
-10 151 56 225 98 376 210 621 621 630 1055 8 398 -145 731 -460 1005 -137
119 -373 226 -573 260 -77 14 -286 27 -294 19z"/>
<path d="M25 3385 c3 -33 9 -78 12 -100 3 -22 6 -49 8 -60 1 -11 5 -40 9 -65
4 -25 9 -56 12 -70 2 -14 15 -77 29 -140 85 -385 205 -698 410 -1065 76 -136
267 -412 354 -511 20 -22 56 -64 80 -92 58 -70 249 -262 339 -341 432 -382
968 -667 1522 -812 161 -42 374 -83 495 -95 33 -3 71 -7 85 -10 123 -22 566
-22 755 0 17 2 57 6 90 10 33 4 72 9 88 12 15 2 42 6 60 9 356 58 735 183
1077 356 153 77 176 91 355 206 412 265 795 645 1072 1066 88 133 92 139 100
157 4 8 9 17 12 20 22 19 185 350 241 490 80 199 154 438 186 595 2 11 8 43
14 70 17 81 23 120 35 215 4 25 9 61 12 80 3 19 6 57 7 85 l1 50 -966 0 -967
0 -17 -85 c-93 -446 -385 -870 -776 -1127 -80 -52 -285 -163 -302 -163 -3 0
-22 -8 -43 -17 -22 -9 -43 -18 -49 -19 -5 -2 -41 -13 -80 -24 -333 -100 -677
-105 -1015 -14 -493 133 -924 490 -1149 952 -26 53 -53 113 -60 132 -7 19 -17
44 -21 55 -14 33 -49 155 -68 235 l-17 75 -968 0 -968 0 6 -60z"/>
</g>
</svg>
